<?xml version="1.0" encoding="utf-8"?>
<!-- Generator: Adobe Illustrator 19.2.0, SVG Export Plug-In . SVG Version: 6.00 Build 0)  -->
<svg version="1.1" id="Layer_1" xmlns:sketch="http://www.bohemiancoding.com/sketch/ns"
	 xmlns="http://www.w3.org/2000/svg" xmlns:xlink="http://www.w3.org/1999/xlink" x="0px" y="0px" viewBox="0 0 53 53"
	 style="enable-background:new 0 0 53 53;" xml:space="preserve">
<style type="text/css">
	.st0{fill:#FFFFFF;}
</style>
<title>issuu</title>
<desc>Created with Sketch.</desc>
<path sketch:type="MSShapeGroup" d="M26.6,44.5c9.9,0,17.9-8,17.9-17.9s-8-17.9-17.9-17.9s-17.9,8-17.9,17.9S16.7,44.5,26.6,44.5
	L26.6,44.5L26.6,44.5z M26.6,1C40.6,1,52,12.4,52,26.5S40.6,52,26.5,52S1,40.6,1,26.6V1H26.6L26.6,1L26.6,1z M26.3,39.1
	c7,0,12.7-5.7,12.7-12.7s-5.7-12.7-12.7-12.7s-12.7,5.7-12.7,12.7S19.2,39.1,26.3,39.1L26.3,39.1L26.3,39.1z M26.6,33.3
	c3.7,0,6.7-3,6.7-6.7s-3-6.7-6.7-6.7s-6.7,3-6.7,6.7S22.9,33.3,26.6,33.3L26.6,33.3L26.6,33.3z"/>
<path class="st0" d="M26.5,33.2c3.7,0,6.7-3,6.7-6.7s-3-6.7-6.7-6.7s-6.7,3-6.7,6.7S22.8,33.2,26.5,33.2L26.5,33.2L26.5,33.2z"/>
</svg>
