<?xml version="1.0" encoding="utf-8"?>
<!-- Generator: Adobe Illustrator 19.2.0, SVG Export Plug-In . SVG Version: 6.00 Build 0)  -->
<svg version="1.1" id="Layer_1" xmlns="http://www.w3.org/2000/svg" xmlns:xlink="http://www.w3.org/1999/xlink" x="0px" y="0px"
	 viewBox="0 0 448 512" style="enable-background:new 0 0 448 512;" xml:space="preserve">
<style type="text/css">
	.st0{fill:#FCFAFA;}
	.st1{display:none;fill:#FFFDFD;enable-background:new    ;}
	.st2{font-family:'MyriadPro-Regular';}
	.st3{font-size:81.0991px;}
</style>
<g id="Layer_1_1_" focusable="false">
	<path d="M400,32H48C21.5,32,0,53.5,0,80v352c0,26.5,21.5,48,48,48h352c26.5,0,48-21.5,48-48V80C448,53.5,426.5,32,400,32z M164,356
		c-55.3,0-100-44.7-100-100s44.7-100,100-100c27,0,49.5,9.8,67,26.2l-27.1,26.1c-7.4-7.1-20.3-15.4-39.8-15.4
		c-34.1,0-61.9,28.2-61.9,63.2c0,34.9,27.8,63.2,61.9,63.2c39.6,0,54.4-28.5,56.8-43.1H164v-34.4h94.4c1,5,1.6,10.1,1.6,16.6
		C260,315.5,221.7,356,164,356L164,356z M384,274.2h-29v29h-29.2v-29h-29V245h29v-29H355v29h29V274.2z"/>
	<rect x="51" y="98" width="356" height="293"/>
</g>
<g id="Layer_2">
	<path class="st0" d="M372.8,249.3c0,84.6-57.9,144.7-143.4,144.7c-82,0-148.2-66.2-148.2-148.2S147.4,97.6,229.4,97.6
		c39.9,0,73.5,14.6,99.4,38.8l-40.3,38.8c-52.8-50.9-150.9-12.7-150.9,70.6c0,51.7,41.3,93.6,91.8,93.6c58.7,0,80.7-42.1,84.1-63.9
		h-84.1v-51h141.1C371.9,232.1,372.8,239.4,372.8,249.3L372.8,249.3z"/>
	<text transform="matrix(1 0 0 1 81.0015 465.7637)" class="st1 st2 st3">portfolio</text>
</g>
</svg>
